<svg id="Layer_1" data-name="Layer 1" xmlns="http://www.w3.org/2000/svg" viewBox="0 0 387.8 341.88"><defs><style>.cls-1{fill:#1b39ca;}</style></defs><title>DCI_COLORS_June24</title><path class="cls-1" d="M42.14,116c0-1.6.41-2,2-2l72.11.08c10.62,0,21,1.47,30.78,6.14,11.56,5.54,19.89,14.4,26.17,25.39,5.95,10.41,9.3,21.64,11.16,33.42a164.7,164.7,0,0,1,1.35,40.41c-1.63,18.5-6,36.23-15.68,52.3-8.3,13.72-19.74,23.54-35.44,27.9A63.11,63.11,0,0,1,117.75,302l-73.85.05c-1.52,0-1.75-.47-1.75-1.85S42.14,116.91,42.14,116ZM76.69,267.3c0,1.52.3,2,2,2l31.34,0c12.62,0,22.35-5.35,29.13-15.94,6.57-10.27,9.13-21.81,10.36-33.73a147.72,147.72,0,0,0,0-28.83,85.47,85.47,0,0,0-5.83-25.29,27.61,27.61,0,0,0-17.42-16.35,47,47,0,0,0-14.89-2.33c-10.91,0-32.73,0-32.73,0-1.6,0-1.89.48-1.89,2Z"/><path class="cls-1" d="M205.06,108a86.75,86.75,0,0,1,3.81-26.23c6.14-19.31,19.34-31,38.89-35.67A79.24,79.24,0,0,1,266,44l27.34,0c1.41,0,1.71.4,1.7,1.74,0,.72,0,30.88,0,31.69,0,1.31-.35,1.67-1.65,1.66-8.07-.06-16.14.15-24.21-.07-17.86-.47-29.38,13.82-29.35,29.24,0,1.49,0,128.49,0,129.25,0,13.6,8.22,24.66,20.47,28.07a41.89,41.89,0,0,0,10.87,1.06l22.28.12c1.23,0,1.55.34,1.54,1.55s0,30.81,0,32c0,1.06-.18,1.58-1.4,1.53,0,0-23.45.4-35.15-.6-13.49-1.15-25.86-5.27-36-14.76-7.82-7.36-12.31-16.57-14.88-26.83a91.6,91.6,0,0,1-2.63-22C205.05,236.57,205.06,108.82,205.06,108Z"/><path class="cls-1" d="M321.84,116.33c0-1.73.31-2.33,2.21-2.31h31c1.46,0,1.82.39,1.82,1.83V299.74c0,1.63-.5,1.87-1.95,1.86H323.74c-1.55,0-1.9-.4-1.9-1.92Z"/></svg>